<svg width="460" height="230" viewBox="0 0 460 230" fill="none" xmlns="http://www.w3.org/2000/svg">
<g clip-path="url(#clip0_202_66)">
<path d="M460.009 0H0V230.005H460.009V0Z" fill="#000066"/>
<path d="M0 0V25.7153L408.58 230.005H460.009V204.291L51.429 0.000766682L0 0ZM460.009 0V25.7145L51.429 230.005H0V204.29L408.58 0H460.009Z" fill="white"/>
<path d="M191.671 0V230.005H268.339V0H191.671ZM0 76.6682V153.336H460.009V76.6682H0Z" fill="white"/>
<path d="M0 92.0018V138.003H460.009V92.0018H0ZM207.004 0V230.005H253.005V0H207.004Z" fill="#CC0000"/>
<path d="M0 230.005L153.336 153.336H187.622L34.286 230.005H0ZM0 0L153.336 76.6682H119.05L0 17.1438L0 0ZM272.387 76.6682L425.723 0H460.009L306.673 76.6682H272.387ZM460.009 230.005L306.673 153.336H340.959L460.009 212.862V230.005Z" fill="#CC0000"/>
</g>
<defs>
<clipPath id="clip0_202_66">
<rect width="460" height="230" fill="white"/>
</clipPath>
</defs>
</svg>
