<svg width="60" height="60" viewBox="0 0 60 60" fill="none" xmlns="http://www.w3.org/2000/svg">
<circle cx="30" cy="30" r="29" stroke="#303178" stroke-width="2"/>
<path d="M26.3771 37.38C26.0051 37.38 25.6344 37.2627 25.3184 37.0333C25.0444 36.8364 24.8313 36.5662 24.7037 36.2537C24.5762 35.9412 24.5392 35.5992 24.5971 35.2667L25.1278 32.1707L22.8784 29.9773C22.6358 29.7425 22.4643 29.4442 22.3834 29.1164C22.3025 28.7886 22.3156 28.4447 22.4211 28.124C22.6344 27.4653 23.1931 26.9947 23.8784 26.8947L26.9878 26.4427L28.3771 23.6267C28.6838 23.0053 29.3051 22.6187 29.9984 22.6187C30.6918 22.6187 31.3118 23.0053 31.6184 23.6267L33.0078 26.4427L36.1158 26.8947C36.8024 26.9947 37.3611 27.4653 37.5744 28.124C37.68 28.4447 37.693 28.7886 37.6122 29.1164C37.5313 29.4442 37.3597 29.7425 37.1171 29.9773L34.8678 32.1707L35.3984 35.2653C35.4565 35.598 35.4196 35.9403 35.292 36.253C35.1644 36.5657 34.9513 36.8362 34.6771 37.0333C34.4048 37.2318 34.0822 37.3498 33.7461 37.3741C33.41 37.3984 33.0738 37.3279 32.7758 37.1707L29.9958 35.708L27.2144 37.1707C26.955 37.3072 26.6663 37.3791 26.3731 37.38H26.3771ZM24.5558 28.8187L26.6224 30.8333C27.0318 31.2307 27.2184 31.8053 27.1238 32.3707L26.6358 35.2173L29.1904 33.8747C29.6984 33.608 30.3024 33.6093 30.8104 33.8747L33.3651 35.2173L32.8771 32.3733C32.8297 32.0949 32.8507 31.8091 32.9383 31.5406C33.0259 31.2721 33.1774 31.0289 33.3798 30.832L35.4451 28.8187L32.5891 28.4027C32.309 28.3626 32.0429 28.2545 31.8142 28.0879C31.5855 27.9212 31.4011 27.7011 31.2771 27.4467L30.0011 24.8627L28.7238 27.4507C28.599 27.7036 28.4147 27.9224 28.1866 28.0882C27.9585 28.254 27.6935 28.362 27.4144 28.4027L24.5571 28.8187H24.5558Z" fill="#303178"/>
<path d="M30 43C22.832 43 17 37.168 17 30C17 22.832 22.832 17 30 17C37.168 17 43 22.832 43 30C43 37.168 37.168 43 30 43ZM30 19C23.9347 19 19 23.9347 19 30C19 36.0653 23.9347 41 30 41C36.0653 41 41 36.0653 41 30C41 23.9347 36.0653 19 30 19Z" fill="#303178"/>
</svg>
