<svg width="60" height="60" viewBox="0 0 60 60" fill="none" xmlns="http://www.w3.org/2000/svg">
<circle cx="30" cy="30" r="29" stroke="#303178" stroke-width="2"/>
<path d="M38.9187 23.828L39.428 23.3187L39.664 23.5547C39.7567 23.6477 39.8668 23.7215 39.9881 23.7719C40.1094 23.8223 40.2394 23.8482 40.3707 23.8482C40.502 23.8482 40.632 23.8223 40.7533 23.7719C40.8746 23.7215 40.9847 23.6477 41.0774 23.5547C41.1703 23.4618 41.244 23.3515 41.2943 23.2302C41.3446 23.1088 41.3705 22.9787 41.3705 22.8473C41.3705 22.716 41.3446 22.5859 41.2943 22.4645C41.244 22.3431 41.1703 22.2329 41.0774 22.14L39.192 20.2547C39.0044 20.0671 38.75 19.9617 38.4847 19.9617C38.2194 19.9617 37.965 20.0671 37.7774 20.2547C37.5898 20.4423 37.4844 20.6967 37.4844 20.962C37.4844 21.2273 37.5898 21.4817 37.7774 21.6693L38.0134 21.9053L37.504 22.4147C35.6673 20.8634 33.3942 19.9209 30.9987 19.7173V19H31.332C31.5972 19 31.8516 18.8946 32.0391 18.7071C32.2267 18.5196 32.332 18.2652 32.332 18C32.332 17.7348 32.2267 17.4804 32.0391 17.2929C31.8516 17.1054 31.5972 17 31.332 17H28.6654C28.4001 17 28.1458 17.1054 27.9583 17.2929C27.7707 17.4804 27.6654 17.7348 27.6654 18C27.6654 18.2652 27.7707 18.5196 27.9583 18.7071C28.1458 18.8946 28.4001 19 28.6654 19H28.9987V19.7173C23.032 20.2267 18.332 25.2373 18.332 31.3333C18.332 37.7667 23.5654 43 29.9987 43C36.432 43 41.6654 37.7667 41.6654 31.3333C41.6668 28.5851 40.6944 25.9255 38.9187 23.828ZM30 41C24.6694 41 20.3334 36.664 20.3334 31.3333C20.3334 26.0027 24.6694 21.6667 30 21.6667C35.3307 21.6667 39.6667 26.0027 39.6667 31.3333C39.6667 36.664 35.3307 41 30 41Z" fill="#303178"/>
<path d="M35.3333 32.3333H30C29.7348 32.3333 29.4804 32.228 29.2929 32.0404C29.1054 31.8529 29 31.5985 29 31.3333V26C29 25.7348 29.1054 25.4804 29.2929 25.2929C29.4804 25.1054 29.7348 25 30 25C30.2652 25 30.5196 25.1054 30.7071 25.2929C30.8946 25.4804 31 25.7348 31 26V30.3333H35.3333C35.5985 30.3333 35.8529 30.4387 36.0404 30.6262C36.228 30.8138 36.3333 31.0681 36.3333 31.3333C36.3333 31.5985 36.228 31.8529 36.0404 32.0404C35.8529 32.228 35.5985 32.3333 35.3333 32.3333Z" fill="#303178"/>
</svg>
