<svg width="80" height="80" viewBox="0 0 80 80" fill="none" xmlns="http://www.w3.org/2000/svg">
<rect width="80" height="80" rx="12" fill="#EAF0FD"/>
<rect width="80" height="80" rx="12" fill="#303178"/>
<path d="M59.0601 46.976C58.4336 44.8887 57.1691 43.05 55.4441 41.718C56.0915 41.1142 56.6079 40.3839 56.9616 39.5723C57.3153 38.7608 57.4985 37.8853 57.5001 37C57.5001 33.416 54.5841 30.5 51.0001 30.5C47.4161 30.5 44.5001 33.416 44.5001 37C44.5001 40.584 47.4161 43.5 51.0001 43.5C51.4761 43.5 51.9381 43.442 52.3861 43.344C53.2919 43.7947 54.0962 44.4256 54.7496 45.198C55.403 45.9704 55.8918 46.8681 56.1861 47.836C56.2095 47.9135 56.2142 47.9953 56.1999 48.0749C56.1857 48.1544 56.1529 48.2295 56.1041 48.294C56.0576 48.3587 55.9963 48.4113 55.9254 48.4475C55.8544 48.4837 55.7758 48.5024 55.6961 48.502H52.0001C51.6023 48.502 51.2208 48.6601 50.9395 48.9414C50.6582 49.2227 50.5001 49.6042 50.5001 50.002C50.5001 50.3999 50.6582 50.7814 50.9395 51.0627C51.2208 51.344 51.6023 51.502 52.0001 51.502H55.6961C56.8141 51.502 57.8401 50.986 58.5081 50.088C59.1801 49.188 59.3801 48.052 59.0601 46.976ZM47.5001 37C47.5001 35.07 49.0701 33.5 51.0001 33.5C52.9301 33.5 54.5001 35.07 54.5001 37C54.5001 38.93 52.9301 40.5 51.0001 40.5C49.0701 40.5 47.5001 38.93 47.5001 37ZM29.0001 30.5C27.2769 30.5022 25.6248 31.1877 24.4063 32.4062C23.1878 33.6247 22.5023 35.2768 22.5001 37C22.5001 38.862 23.2981 40.532 24.5561 41.718C22.8312 43.05 21.5667 44.8887 20.9401 46.976C20.6201 48.052 20.8201 49.184 21.4921 50.086C22.1601 50.984 23.1861 51.5 24.3041 51.5H28.0001C28.398 51.5 28.7795 51.342 29.0608 51.0607C29.3421 50.7794 29.5001 50.3979 29.5001 50C29.5001 49.6022 29.3421 49.2207 29.0608 48.9394C28.7795 48.6581 28.398 48.5 28.0001 48.5H24.3041C24.2244 48.5007 24.1457 48.4822 24.0747 48.446C24.0037 48.4097 23.9424 48.357 23.8961 48.292C23.8473 48.2276 23.8144 48.1525 23.8001 48.0729C23.7859 47.9933 23.7907 47.9114 23.8141 47.834C24.1084 46.8661 24.5973 45.9684 25.2507 45.196C25.9041 44.4236 26.7083 43.7927 27.6141 43.342C28.0621 43.44 28.5241 43.498 29.0001 43.498C32.5841 43.498 35.5001 40.582 35.5001 36.998C35.5001 33.414 32.5841 30.5 29.0001 30.5ZM29.0001 40.5C27.0701 40.5 25.5001 38.93 25.5001 37C25.5001 35.07 27.0701 33.5 29.0001 33.5C30.9301 33.5 32.5001 35.07 32.5001 37C32.5001 38.93 30.9301 40.5 29.0001 40.5Z" fill="white"/>
<path d="M53.2519 49.41C52.3619 44.83 49.1759 41.188 45.0439 39.514C45.8152 38.8171 46.4322 37.9664 46.8552 37.0168C47.2782 36.0672 47.4978 35.0396 47.4999 34C47.4999 29.866 44.1359 26.5 39.9999 26.5C35.8639 26.5 32.4999 29.866 32.4999 34C32.4999 36.188 33.4579 38.14 34.9559 39.514C30.8239 41.188 27.6379 44.83 26.7479 49.412C26.6538 49.9024 26.6698 50.4076 26.7947 50.8911C26.9195 51.3747 27.1501 51.8244 27.4699 52.208C28.1459 53.028 29.1419 53.5 30.2019 53.5H49.7959C50.8559 53.5 51.8519 53.03 52.5279 52.208C53.1799 51.418 53.4439 50.4 53.2519 49.41ZM35.4999 34C35.4999 31.52 37.5179 29.5 39.9999 29.5C42.4819 29.5 44.4999 31.52 44.4999 34C44.4999 36.48 42.4819 38.5 39.9999 38.5C37.5179 38.5 35.4999 36.48 35.4999 34ZM50.2139 50.3C50.1631 50.3618 50.0993 50.4118 50.0271 50.4464C49.9549 50.4809 49.876 50.4992 49.7959 50.5H30.2039C30.1238 50.4996 30.0447 50.4815 29.9724 50.4469C29.9002 50.4123 29.8365 50.3622 29.7859 50.3C29.7474 50.2579 29.719 50.2075 29.7031 50.1527C29.6871 50.0979 29.684 50.0402 29.6939 49.984C30.6499 45.068 34.9839 41.5 39.9999 41.5C45.0159 41.5 49.3519 45.068 50.3059 49.982C50.3162 50.0385 50.3132 50.0966 50.2972 50.1518C50.2813 50.207 50.2527 50.2577 50.2139 50.3Z" fill="white"/>
</svg>
