<svg width="80" height="80" viewBox="0 0 80 80" fill="none" xmlns="http://www.w3.org/2000/svg">
<rect width="80" height="80" rx="12" fill="#EAF0FD"/>
<rect width="80" height="80" rx="12" fill="#303178"/>
<path d="M52.138 50.5C51.7402 50.5 51.3586 50.658 51.0773 50.9393C50.796 51.2206 50.638 51.6022 50.638 52V54C50.638 55.378 49.516 56.5 48.138 56.5H42C40.2767 56.4979 38.6247 55.8124 37.4061 54.5939C36.1876 53.3753 35.5021 51.7233 35.5 50V47.412C42.24 46.662 47.5 40.938 47.5 34V28C47.4989 26.5416 46.9191 25.1433 45.8879 24.1121C44.8567 23.0809 43.4584 22.5011 42 22.5H41.5V22C41.5 21.6022 41.342 21.2206 41.0607 20.9393C40.7794 20.658 40.3978 20.5 40 20.5C39.6022 20.5 39.2206 20.658 38.9393 20.9393C38.658 21.2206 38.5 21.6022 38.5 22V26C38.5 26.3978 38.658 26.7794 38.9393 27.0607C39.2206 27.342 39.6022 27.5 40 27.5C40.3978 27.5 40.7794 27.342 41.0607 27.0607C41.342 26.7794 41.5 26.3978 41.5 26V25.5H42C43.378 25.5 44.5 26.622 44.5 28V34C44.5 39.79 39.79 44.5 34 44.5C28.21 44.5 23.5 39.79 23.5 34V28C23.5 26.622 24.622 25.5 26 25.5H26.5V26C26.5 26.3978 26.658 26.7794 26.9393 27.0607C27.2206 27.342 27.6022 27.5 28 27.5C28.3978 27.5 28.7794 27.342 29.0607 27.0607C29.342 26.7794 29.5 26.3978 29.5 26V22C29.5 21.6022 29.342 21.2206 29.0607 20.9393C28.7794 20.658 28.3978 20.5 28 20.5C27.6022 20.5 27.2206 20.658 26.9393 20.9393C26.658 21.2206 26.5 21.6022 26.5 22V22.5H26C24.5416 22.5011 23.1433 23.0809 22.1121 24.1121C21.0809 25.1433 20.5011 26.5416 20.5 28V34C20.5 40.936 25.76 46.662 32.5 47.412V50C32.5032 52.5186 33.5051 54.9331 35.286 56.714C37.0669 58.4949 39.4814 59.4968 42 59.5H48.138C49.5962 59.4984 50.9942 58.9184 52.0253 57.8873C53.0564 56.8562 53.6364 55.4582 53.638 54V52C53.638 51.6022 53.48 51.2206 53.1987 50.9393C52.9174 50.658 52.5358 50.5 52.138 50.5Z" fill="white"/>
<path d="M53 53.5C49.416 53.5 46.5 50.584 46.5 47C46.5 43.416 49.416 40.5 53 40.5C56.584 40.5 59.5 43.416 59.5 47C59.5 50.584 56.584 53.5 53 53.5ZM53 43.5C51.07 43.5 49.5 45.07 49.5 47C49.5 48.93 51.07 50.5 53 50.5C54.93 50.5 56.5 48.93 56.5 47C56.5 45.07 54.93 43.5 53 43.5Z" fill="white"/>
</svg>
