<svg width="60" height="60" viewBox="0 0 60 60" fill="none" xmlns="http://www.w3.org/2000/svg">
<circle cx="30" cy="30" r="29" stroke="#303178" stroke-width="2"/>
<path d="M35.3108 40.3333H23.3335C23.0683 40.3333 22.8139 40.228 22.6264 40.0405C22.4389 39.8529 22.3335 39.5986 22.3335 39.3333V26C22.3335 25.7348 22.4389 25.4804 22.6264 25.2929C22.8139 25.1054 23.0683 25 23.3335 25H24.2322C25.2742 24.9957 26.28 24.6178 27.0671 23.935C27.8542 23.2522 28.3702 22.3096 28.5215 21.2787L28.6882 20.1253C28.762 19.6079 28.9463 19.1124 29.2286 18.6725C29.5109 18.2325 29.8846 17.8585 30.3243 17.5758C30.7639 17.2931 31.2593 17.1084 31.7767 17.0341C32.2941 16.9598 32.8214 16.9978 33.3228 17.1453C35.0455 17.6347 36.1455 19.3987 35.8802 21.2493L35.3442 25H37.7175C38.5061 24.9992 39.284 25.1817 39.99 25.533C40.696 25.8843 41.3107 26.3949 41.7855 27.0244C42.2604 27.6539 42.5826 28.3852 42.7265 29.1605C42.8704 29.9358 42.8322 30.734 42.6148 31.492L41.4015 35.74C41.0193 37.0609 40.2194 38.2225 39.1216 39.0506C38.0238 39.8787 36.6873 40.3287 35.3122 40.3333H35.3108ZM24.3335 38.3333H35.3108C37.2348 38.3333 38.9495 37.04 39.4775 35.1907L40.6908 30.9427C40.8229 30.4823 40.8461 29.9975 40.7587 29.5266C40.6713 29.0557 40.4756 28.6115 40.1871 28.2292C39.8987 27.8469 39.5253 27.5368 39.0965 27.3235C38.6676 27.1102 38.1951 26.9994 37.7162 27H34.1895C34.0462 27 33.9045 26.9691 33.7741 26.9095C33.6438 26.8499 33.5278 26.7629 33.4339 26.6546C33.3401 26.5462 33.2707 26.4189 33.2303 26.2814C33.19 26.1438 33.1797 25.9992 33.2002 25.8573L33.8988 20.964C34.0202 20.1147 33.5268 19.2813 32.7748 19.068C32.5449 18.9987 32.3026 18.9802 32.0648 19.0139C31.8269 19.0475 31.5993 19.1324 31.3975 19.2627C31.2009 19.3902 31.0339 19.5585 30.9079 19.7561C30.7818 19.9536 30.6996 20.176 30.6668 20.408L30.5002 21.5613C30.2815 23.0505 29.5419 24.4139 28.4128 25.4092C27.2838 26.4045 25.8383 26.9673 24.3335 26.9973V38.3333Z" fill="#303178"/>
<path d="M22 41.6667H19.3333C18.0467 41.6667 17 40.62 17 39.3334V26C17 24.7134 18.0467 23.6667 19.3333 23.6667H22C23.2867 23.6667 24.3333 24.7134 24.3333 26V39.3334C24.3333 40.62 23.2867 41.6667 22 41.6667ZM19.3333 25.6667C19.2449 25.6667 19.1601 25.7018 19.0976 25.7643C19.0351 25.8268 19 25.9116 19 26V39.3334C19 39.5174 19.1493 39.6667 19.3333 39.6667H22C22.0884 39.6667 22.1732 39.6316 22.2357 39.5691C22.2982 39.5065 22.3333 39.4218 22.3333 39.3334V26C22.3333 25.9116 22.2982 25.8268 22.2357 25.7643C22.1732 25.7018 22.0884 25.6667 22 25.6667H19.3333Z" fill="#303178"/>
</svg>
