<svg width="60" height="60" viewBox="0 0 60 60" fill="none" xmlns="http://www.w3.org/2000/svg">
<circle cx="30" cy="30" r="29" stroke="#303178" stroke-width="2"/>
<path d="M42.0307 30.5013C41.9002 30.4836 41.7675 30.4921 41.6404 30.5262C41.5132 30.5604 41.3942 30.6195 41.2901 30.7002C41.1861 30.7809 41.0992 30.8815 41.0345 30.9962C40.9698 31.1108 40.9286 31.2372 40.9133 31.368C40.22 36.8587 35.5293 41 29.9987 41C23.9333 41 18.9987 36.0653 18.9987 30C18.9987 23.9347 23.9347 19 30 19C32.308 19 34.48 19.7027 36.3107 21H35.3333C35.0681 21 34.8138 21.1054 34.6262 21.2929C34.4387 21.4804 34.3333 21.7348 34.3333 22C34.3333 22.2652 34.4387 22.5196 34.6262 22.7071C34.8138 22.8946 35.0681 23 35.3333 23H39.3333C39.5985 23 39.8529 22.8946 40.0404 22.7071C40.228 22.5196 40.3333 22.2652 40.3333 22V18C40.3333 17.7348 40.228 17.4804 40.0404 17.2929C39.8529 17.1054 39.5985 17 39.3333 17C39.0681 17 38.8138 17.1054 38.6262 17.2929C38.4387 17.4804 38.3333 17.7348 38.3333 18V20.0547C35.9999 18.0905 33.0501 17.0092 30 17C22.832 17 17 22.832 17 30C17 37.168 22.832 43 30 43C36.5347 43 42.0813 38.1067 42.8987 31.6187C42.9319 31.3556 42.8592 31.0901 42.6967 30.8805C42.5342 30.671 42.2937 30.5346 42.0307 30.5013Z" fill="#303178"/>
<path d="M35.3332 35C35.068 35 34.8136 34.8946 34.6261 34.7071C34.4385 34.5196 34.3332 34.2652 34.3332 34V32.3333H31.8452C31.4118 32.3333 31.0105 32.1387 30.7438 31.796C30.6121 31.6292 30.5204 31.4344 30.4758 31.2266C30.4312 31.0188 30.4349 30.8035 30.4865 30.5973L30.9665 29.1973C31.5307 27.5673 32.6268 26.1744 34.0785 25.2427L34.2078 25.16C34.3693 25.0563 34.5573 25.0013 34.7492 25.0013C35.1691 25.002 35.5715 25.1692 35.8684 25.4661C36.1654 25.763 36.3325 26.1654 36.3332 26.5853V30.3347H36.6665C36.9317 30.3347 37.1861 30.44 37.3736 30.6276C37.5611 30.8151 37.6665 31.0695 37.6665 31.3347C37.6665 31.5999 37.5611 31.8542 37.3736 32.0418C37.1861 32.2293 36.9317 32.3347 36.6665 32.3347H36.3332V34.0013C36.3332 34.2666 36.2278 34.5209 36.0403 34.7084C35.8527 34.896 35.5984 35.0013 35.3332 35.0013V35ZM32.6892 30.3333H34.3332V27.5693C33.664 28.1988 33.1575 28.9812 32.8572 29.8493L32.6892 30.3333ZM29.6665 34C29.6665 33.7348 29.5611 33.4804 29.3736 33.2929C29.1861 33.1054 28.9317 33 28.6665 33H25.9998C25.9114 33 25.8266 32.9649 25.7641 32.9024C25.7016 32.8399 25.6665 32.7551 25.6665 32.6667V31.3333C25.6665 31.2449 25.7016 31.1601 25.7641 31.0976C25.8266 31.0351 25.9114 31 25.9998 31H27.3332C28.6198 31 29.6665 29.9533 29.6665 28.6667V27.3333C29.6665 26.0467 28.6198 25 27.3332 25H24.6665C24.4013 25 24.1469 25.1054 23.9594 25.2929C23.7719 25.4804 23.6665 25.7348 23.6665 26C23.6665 26.2652 23.7719 26.5196 23.9594 26.7071C24.1469 26.8946 24.4013 27 24.6665 27H27.3332C27.4216 27 27.5064 27.0351 27.5689 27.0976C27.6314 27.1601 27.6665 27.2449 27.6665 27.3333V28.6667C27.6665 28.7551 27.6314 28.8399 27.5689 28.9024C27.5064 28.9649 27.4216 29 27.3332 29H25.9998C24.7132 29 23.6665 30.0467 23.6665 31.3333V32.6667C23.6665 33.9533 24.7132 35 25.9998 35H28.6665C28.9317 35 29.1861 34.8946 29.3736 34.7071C29.5611 34.5196 29.6665 34.2652 29.6665 34Z" fill="#303178"/>
</svg>
