<svg width="60" height="60" viewBox="0 0 60 60" fill="none" xmlns="http://www.w3.org/2000/svg">
<circle cx="30" cy="30" r="29" stroke="#303178" stroke-width="2"/>
<path d="M28.6663 23.6657H26.9994V21.9988C26.9994 21.7336 26.894 21.4792 26.7065 21.2916C26.5189 21.104 26.2645 20.9987 25.9993 20.9987C25.734 20.9987 25.4796 21.104 25.292 21.2916C25.1045 21.4792 24.9991 21.7336 24.9991 21.9988V23.6657H23.3322C23.0669 23.6657 22.8125 23.7711 22.625 23.9587C22.4374 24.1462 22.332 24.4006 22.332 24.6659C22.332 24.9311 22.4374 25.1855 22.625 25.3731C22.8125 25.5607 23.0669 25.666 23.3322 25.666H24.9991V27.333C24.9991 27.5982 25.1045 27.8526 25.292 28.0402C25.4796 28.2277 25.734 28.3331 25.9993 28.3331C26.2645 28.3331 26.5189 28.2277 26.7065 28.0402C26.894 27.8526 26.9994 27.5982 26.9994 27.333V25.666H28.6663C28.9316 25.666 29.186 25.5607 29.3735 25.3731C29.5611 25.1855 29.6665 24.9311 29.6665 24.6659C29.6665 24.4006 29.5611 24.1462 29.3735 23.9587C29.186 23.7711 28.9316 23.6657 28.6663 23.6657Z" fill="#303178"/>
<path d="M39.3348 26.3328H35.0008V20.6653C35.0001 19.6929 34.6135 18.7605 33.9259 18.0729C33.2383 17.3853 32.306 16.9988 31.3336 16.998H20.6653C19.6929 16.9988 18.7605 17.3853 18.0729 18.0729C17.3853 18.7605 16.9988 19.6929 16.998 20.6653V41.3351C16.998 42.2539 17.7462 43.002 18.665 43.002H41.3351C42.2539 43.002 43.002 42.2539 43.002 41.3351V30C43.0013 29.0276 42.6147 28.0953 41.9271 27.4077C41.2395 26.7201 40.3072 26.3335 39.3348 26.3328ZM18.9984 20.6653C18.9984 19.7465 19.7465 18.9984 20.6653 18.9984H31.3336C32.2524 18.9984 33.0005 19.7465 33.0005 20.6653V41.0017H31.0002V34.0006C31.0002 32.7138 29.9534 31.667 28.6665 31.667H23.3323C22.0455 31.667 20.9987 32.7138 20.9987 34.0006V41.0017H18.9984V20.6653ZM22.999 41.0017V34.0006C22.999 33.9122 23.0341 33.8274 23.0966 33.7649C23.1591 33.7024 23.2439 33.6673 23.3323 33.6673H28.6665C28.7549 33.6673 28.8397 33.7024 28.9022 33.7649C28.9648 33.8274 28.9999 33.9122 28.9999 34.0006V41.0017H22.999ZM41.0017 41.0017H35.0008V28.3331H39.3348C40.2536 28.3331 41.0017 29.0812 41.0017 30V41.0017Z" fill="#303178"/>
<path d="M38.0011 35.6675C37.7359 35.6675 37.4815 35.7729 37.2939 35.9605C37.1063 36.148 37.001 36.4024 37.001 36.6677V38.0012C37.001 38.2665 37.1063 38.5209 37.2939 38.7084C37.4815 38.896 37.7359 39.0014 38.0011 39.0014C38.2664 39.0014 38.5208 38.896 38.7083 38.7084C38.8959 38.5209 39.0013 38.2665 39.0013 38.0012V36.6677C39.0013 36.4024 38.8959 36.148 38.7083 35.9605C38.5208 35.7729 38.2664 35.6675 38.0011 35.6675ZM38.0011 30.3334C37.7359 30.3334 37.4815 30.4387 37.2939 30.6263C37.1063 30.8139 37.001 31.0683 37.001 31.3335V32.6671C37.001 32.9323 37.1063 33.1867 37.2939 33.3743C37.4815 33.5618 37.7359 33.6672 38.0011 33.6672C38.2664 33.6672 38.5208 33.5618 38.7083 33.3743C38.8959 33.1867 39.0013 32.9323 39.0013 32.6671V31.3335C39.0013 31.0683 38.8959 30.8139 38.7083 30.6263C38.5208 30.4387 38.2664 30.3334 38.0011 30.3334Z" fill="#303178"/>
</svg>
