<svg width="60" height="60" viewBox="0 0 60 60" fill="none" xmlns="http://www.w3.org/2000/svg">
<circle cx="30" cy="30" r="29" stroke="#303178" stroke-width="2"/>
<path d="M35.0002 35.8227V31.3334C35.0002 31.0682 34.8948 30.8138 34.7073 30.6263C34.5197 30.4387 34.2654 30.3334 34.0002 30.3334C33.7349 30.3334 33.4806 30.4387 33.2931 30.6263C33.1055 30.8138 33.0002 31.0682 33.0002 31.3334V35.8227C32.2345 36.0386 31.5601 36.498 31.0789 37.1315C30.5978 37.7649 30.3361 38.5379 30.3335 39.3334V40.6667C30.3335 40.9319 30.4389 41.1863 30.6264 41.3738C30.8139 41.5614 31.0683 41.6667 31.3335 41.6667C31.5987 41.6667 31.8531 41.5614 32.0406 41.3738C32.2281 41.1863 32.3335 40.9319 32.3335 40.6667V39.3334C32.3335 38.4147 33.0815 37.6667 34.0002 37.6667C34.9188 37.6667 35.6668 38.4147 35.6668 39.3334V40.6667C35.6668 40.9319 35.7722 41.1863 35.9597 41.3738C36.1473 41.5614 36.4016 41.6667 36.6668 41.6667C36.932 41.6667 37.1864 41.5614 37.3739 41.3738C37.5615 41.1863 37.6668 40.9319 37.6668 40.6667V39.3334C37.6642 38.5379 37.4025 37.7649 36.9214 37.1315C36.4402 36.498 35.7658 36.0386 35.0002 35.8227ZM27.0002 36.1747V31.3334C27.0002 31.0682 26.8948 30.8138 26.7073 30.6263C26.5197 30.4387 26.2654 30.3334 26.0002 30.3334C25.7349 30.3334 25.4806 30.4387 25.2931 30.6263C25.1055 30.8138 25.0002 31.0682 25.0002 31.3334V35.7C23.5042 35.868 22.3335 37.1267 22.3335 38.6667C22.3335 40.3214 23.6788 41.6667 25.3335 41.6667C26.9882 41.6667 28.3335 40.3214 28.3335 38.6667C28.3331 38.1738 28.2112 37.6885 27.9787 37.2539C27.7461 36.8192 27.41 36.4486 27.0002 36.1747ZM25.3335 39.6667C25.0683 39.6667 24.8139 39.5614 24.6264 39.3738C24.4389 39.1863 24.3335 38.9319 24.3335 38.6667C24.3335 38.4015 24.4389 38.1471 24.6264 37.9596C24.8139 37.7721 25.0683 37.6667 25.3335 37.6667C25.5987 37.6667 25.8531 37.7721 26.0406 37.9596C26.2281 38.1471 26.3335 38.4015 26.3335 38.6667C26.3335 38.9319 26.2281 39.1863 26.0406 39.3738C25.8531 39.5614 25.5987 39.6667 25.3335 39.6667Z" fill="#303178"/>
<path d="M35.3373 30.16C36.0743 29.4475 36.6604 28.5939 37.0606 27.6502C37.4607 26.7064 37.6669 25.6918 37.6667 24.6667C37.6667 20.44 34.2267 17 30 17C25.7733 17 22.3333 20.44 22.3333 24.6667C22.3333 26.82 23.2293 28.7653 24.6627 30.16C20.0733 32.2293 17 36.8573 17 42C17 42.2652 17.1054 42.5196 17.2929 42.7071C17.4804 42.8946 17.7348 43 18 43C18.2652 43 18.5196 42.8946 18.7071 42.7071C18.8946 42.5196 19 42.2652 19 42C19.0066 39.6749 19.7483 37.4115 21.1191 35.5334C22.4899 33.6554 24.4196 32.259 26.632 31.544C27.6507 32.0453 28.7907 32.3333 30 32.3333C31.2093 32.3333 32.3493 32.044 33.368 31.544C35.5803 32.2592 37.5098 33.6556 38.8806 35.5336C40.2514 37.4116 40.9932 39.675 41 42C41 42.2652 41.1054 42.5196 41.2929 42.7071C41.4804 42.8946 41.7348 43 42 43C42.2652 43 42.5196 42.8946 42.7071 42.7071C42.8946 42.5196 43 42.2652 43 42C43 36.8573 39.9253 32.2293 35.3373 30.16ZM24.3333 24.6667C24.3333 21.5427 26.876 19 30 19C33.124 19 35.6667 21.5427 35.6667 24.6667C35.6667 27.7907 33.124 30.3333 30 30.3333C26.876 30.3333 24.3333 27.7907 24.3333 24.6667Z" fill="#303178"/>
</svg>
