<svg width="80" height="80" viewBox="0 0 80 80" fill="none" xmlns="http://www.w3.org/2000/svg">
<rect width="80" height="80" rx="12" fill="#EAF0FD"/>
<path d="M34 43.5C34.3978 43.5 34.7794 43.342 35.0607 43.0607C35.342 42.7794 35.5 42.3978 35.5 42V34C35.5 33.6022 35.342 33.2206 35.0607 32.9393C34.7794 32.658 34.3978 32.5 34 32.5C33.6022 32.5 33.2206 32.658 32.9393 32.9393C32.658 33.2206 32.5 33.6022 32.5 34V42C32.5 42.828 33.172 43.5 34 43.5ZM40 43.5C40.3978 43.5 40.7794 43.342 41.0607 43.0607C41.342 42.7794 41.5 42.3978 41.5 42V38C41.5 37.6022 41.342 37.2206 41.0607 36.9393C40.7794 36.658 40.3978 36.5 40 36.5C39.6022 36.5 39.2206 36.658 38.9393 36.9393C38.658 37.2206 38.5 37.6022 38.5 38V42C38.5 42.828 39.172 43.5 40 43.5ZM46 34.5C45.6022 34.5 45.2206 34.658 44.9393 34.9393C44.658 35.2206 44.5 35.6022 44.5 36V42C44.5 42.3978 44.658 42.7794 44.9393 43.0607C45.2206 43.342 45.6022 43.5 46 43.5C46.3978 43.5 46.7794 43.342 47.0607 43.0607C47.342 42.7794 47.5 42.3978 47.5 42V36C47.5 35.6022 47.342 35.2206 47.0607 34.9393C46.7794 34.658 46.3978 34.5 46 34.5ZM46 48.5H34C33.6022 48.5 33.2206 48.658 32.9393 48.9393C32.658 49.2206 32.5 49.6022 32.5 50C32.5 50.3978 32.658 50.7794 32.9393 51.0607C33.2206 51.342 33.6022 51.5 34 51.5H46C46.3978 51.5 46.7794 51.342 47.0607 51.0607C47.342 50.7794 47.5 50.3978 47.5 50C47.5 49.6022 47.342 49.2206 47.0607 48.9393C46.7794 48.658 46.3978 48.5 46 48.5Z" fill="#303178"/>
<path d="M50 22.5H47.148C46.584 21.322 45.39 20.5 44 20.5H36C34.61 20.5 33.416 21.322 32.852 22.5H30C28.5416 22.5011 27.1433 23.0809 26.1121 24.1121C25.0809 25.1433 24.5011 26.5416 24.5 28V54C24.5011 55.4584 25.0809 56.8567 26.1121 57.8879C27.1433 58.9191 28.5416 59.4989 30 59.5H50C51.4584 59.4989 52.8567 58.9191 53.8879 57.8879C54.9191 56.8567 55.4989 55.4584 55.5 54V28C55.4989 26.5416 54.9191 25.1433 53.8879 24.1121C52.8567 23.0809 51.4584 22.5011 50 22.5ZM36 23.5H44C44.1326 23.5 44.2598 23.5527 44.3536 23.6464C44.4473 23.7402 44.5 23.8674 44.5 24V26C44.5 26.1326 44.4473 26.2598 44.3536 26.3536C44.2598 26.4473 44.1326 26.5 44 26.5H36C35.8674 26.5 35.7402 26.4473 35.6464 26.3536C35.5527 26.2598 35.5 26.1326 35.5 26V24C35.5 23.8674 35.5527 23.7402 35.6464 23.6464C35.7402 23.5527 35.8674 23.5 36 23.5ZM52.5 54C52.5 55.378 51.378 56.5 50 56.5H30C28.622 56.5 27.5 55.378 27.5 54V28C27.5 26.622 28.622 25.5 30 25.5H32.5V26C32.5 27.93 34.07 29.5 36 29.5H44C45.93 29.5 47.5 27.93 47.5 26V25.5H50C51.378 25.5 52.5 26.622 52.5 28V54Z" fill="#303178"/>
</svg>
