<svg width="8" height="6" viewBox="0 0 8 6" fill="none" xmlns="http://www.w3.org/2000/svg">
<path fill-rule="evenodd" clip-rule="evenodd" d="M7.77505 0.975047C7.89209 1.09223 7.95783 1.25109 7.95783 1.41671C7.95783 1.58234 7.89209 1.74119 7.77505 1.85838L4.44171 5.19171C4.32453 5.30876 4.16567 5.3745 4.00005 5.3745C3.83442 5.3745 3.67557 5.30876 3.55838 5.19171L0.225046 1.85838C0.163641 1.80116 0.114389 1.73216 0.0802289 1.6555C0.0460689 1.57883 0.027701 1.49607 0.0262203 1.41215C0.0247397 1.32823 0.0401767 1.24487 0.0716108 1.16705C0.103045 1.08923 0.149832 1.01853 0.209181 0.959182C0.26853 0.899833 0.339225 0.853045 0.417048 0.821611C0.494872 0.790177 0.57823 0.77474 0.662149 0.77622C0.746068 0.777701 0.828829 0.796069 0.905495 0.830229C0.982161 0.864389 1.05116 0.913641 1.10838 0.975047L4.00005 3.86671L6.89171 0.975047C7.0089 0.858005 7.16775 0.792264 7.33338 0.792264C7.49901 0.792264 7.65786 0.858005 7.77505 0.975047Z" fill="#122032"/>
</svg>
