<svg width="81" height="81" viewBox="0 0 81 81" fill="none" xmlns="http://www.w3.org/2000/svg">
<circle cx="40.5" cy="40.5" r="40.5" fill="url(#paint0_linear_2706_4869)"/>
<path d="M52.925 27.0016C51.2442 25.3038 49.2421 23.9577 47.0356 23.0417C44.8291 22.1257 42.4623 21.6583 40.0733 21.6666C30.0633 21.6666 21.905 29.8249 21.905 39.8349C21.905 43.0433 22.7483 46.1599 24.325 48.9099L21.7583 58.3333L31.3833 55.8033C34.0416 57.2516 37.03 58.0216 40.0733 58.0216C50.0833 58.0216 58.2416 49.8633 58.2416 39.8533C58.2416 34.9949 56.3533 30.4299 52.925 27.0016ZM40.0733 54.9416C37.36 54.9416 34.7016 54.2083 32.3733 52.8333L31.8233 52.5033L26.1033 54.0066L27.625 48.4333L27.2583 47.8649C25.7508 45.4577 24.9504 42.6752 24.9483 39.8349C24.9483 31.5116 31.7316 24.7283 40.055 24.7283C44.0883 24.7283 47.8833 26.3049 50.725 29.1649C52.132 30.5655 53.2471 32.2315 54.0055 34.0662C54.764 35.901 55.1507 37.868 55.1433 39.8533C55.18 48.1766 48.3966 54.9416 40.0733 54.9416ZM48.36 43.6483C47.9016 43.4283 45.665 42.3283 45.2616 42.1633C44.84 42.0166 44.5466 41.9433 44.235 42.3833C43.9233 42.8416 43.0616 43.8683 42.805 44.1616C42.5483 44.4733 42.2733 44.5099 41.815 44.2716C41.3566 44.0516 39.89 43.5566 38.1666 42.0166C36.81 40.8066 35.9116 39.3216 35.6366 38.8633C35.38 38.4049 35.6 38.1666 35.8383 37.9283C36.04 37.7266 36.2966 37.3966 36.5166 37.1399C36.7366 36.8833 36.8283 36.6816 36.975 36.3883C37.1216 36.0766 37.0483 35.8199 36.9383 35.5999C36.8283 35.3799 35.9116 33.1433 35.545 32.2266C35.1783 31.3466 34.7933 31.4566 34.5183 31.4383H33.6383C33.3266 31.4383 32.85 31.5483 32.4283 32.0066C32.025 32.4649 30.8516 33.5649 30.8516 35.8016C30.8516 38.0383 32.4833 40.2016 32.7033 40.4949C32.9233 40.8066 35.9116 45.3899 40.4583 47.3516C41.54 47.8283 42.3833 48.1033 43.0433 48.3049C44.125 48.6533 45.115 48.5983 45.9033 48.4883C46.7833 48.3599 48.5983 47.3883 48.965 46.3249C49.35 45.2616 49.35 44.3633 49.2216 44.1616C49.0933 43.9599 48.8183 43.8683 48.36 43.6483Z" fill="#F5F5F5"/>
<defs>
<linearGradient id="paint0_linear_2706_4869" x1="0" y1="0" x2="76.95" y2="81" gradientUnits="userSpaceOnUse">
<stop stop-color="#51CD5E"/>
<stop offset="1" stop-color="#23B33A"/>
</linearGradient>
</defs>
</svg>
